<?xml version="1.0" standalone="no"?><!DOCTYPE svg PUBLIC "-//W3C//DTD SVG 1.1//EN" "http://www.w3.org/Graphics/SVG/1.1/DTD/svg11.dtd"><svg t="1749139379943" class="icon" viewBox="0 0 1024 1024" version="1.1" xmlns="http://www.w3.org/2000/svg" p-id="8886" xmlns:xlink="http://www.w3.org/1999/xlink" width="200" height="200"><path d="M493.289037 0l37.421927 0c6.803987 0 13.607973 0 23.813953 3.401993 115.667774 10.20598 227.933555 57.833887 309.581395 139.481728 78.245847 74.843854 132.677741 173.501661 149.687708 282.365449 3.401993 23.813953 6.803987 47.627907 6.803987 68.039867l0 37.421927c0 6.803987 0 13.607973-3.401993 23.813953-10.20598 115.667774-57.833887 224.531561-139.481728 309.581395-68.039867 71.44186-159.893688 122.471761-255.149502 146.285714-30.61794 6.803987-64.637874 10.20598-95.255814 13.607973l-37.421927 0c-6.803987 0-13.607973 0-23.813953-3.401993-115.667774-10.20598-227.933555-57.833887-309.581395-139.481728-78.245847-74.843854-132.677741-173.501661-149.687708-282.365449-3.401993-23.813953-6.803987-47.627907-6.803987-68.039867l0-37.421927c3.401993-23.813953 3.401993-47.627907 6.803987-68.039867 17.009967-105.461794 71.44186-207.521595 149.687708-282.365449 85.049834-81.647841 193.913621-129.275748 309.581395-139.481728C479.681063 0 486.48505 0 493.289037 0M493.289037 129.275748c-68.039867 3.401993-132.677741 23.813953-187.109635 61.23588-51.0299 34.019934-95.255814 78.245847-125.873754 132.677741-37.421927 64.637874-54.431894 142.883721-47.627907 217.727575 6.803987 122.471761 81.647841 238.139535 187.109635 299.375415 68.039867 40.82392 146.285714 57.833887 224.531561 51.0299 122.471761-6.803987 238.139535-81.647841 299.375415-187.109635 40.82392-68.039867 57.833887-146.285714 51.0299-224.531561-6.803987-122.471761-81.647841-238.139535-187.109635-299.375415C642.976744 142.883721 568.13289 125.873754 493.289037 129.275748L493.289037 129.275748zM493.289037 129.275748" p-id="8887" fill="#ffffff"></path><path d="M316.385382 445.66113c129.275748 0 258.551495 0 387.827243 0 23.813953 0 44.225914 10.20598 54.431894 30.61794 13.607973 20.41196 13.607973 44.225914 3.401993 64.637874-13.607973 23.813953-40.82392 37.421927-64.637874 34.019934-125.873754 0-248.345515 0-374.219269 0-20.41196 0-44.225914-10.20598-54.431894-30.61794-10.20598-17.009967-13.607973-40.82392-3.401993-61.23588C272.159468 462.671096 292.571429 449.063123 316.385382 445.66113L316.385382 445.66113zM316.385382 445.66113" p-id="8888" fill="#ffffff"></path></svg>